<?xml version="1.0"?>
<svg xmlns="http://www.w3.org/2000/svg" xmlns:xlink="http://www.w3.org/1999/xlink" xmlns:svgjs="http://svgjs.com/svgjs" version="1.1" width="512" height="512" x="0" y="0" viewBox="0 0 512 512" style="enable-background:new 0 0 512 512" xml:space="preserve"><g><path xmlns="http://www.w3.org/2000/svg" d="m416 160c0-88.37-71.63-160-160-160-.01 0-.01 0-.02 0-88.36.01-159.98 71.64-159.98 160 0 77.41 54.97 141.97 128 156.8v67.2h-64v64h64v64h64v-64h64v-64h-64v-67.2c73.03-14.83 128-79.39 128-156.8zm-160 96c-.01 0-.01 0-.02 0-53.01-.01-95.98-42.99-95.98-96s42.97-95.99 95.98-96h.02c53.02 0 96 42.98 96 96s-42.98 96-96 96z" fill="#b40dc4" data-original="#000000" style=""/></g></svg>
