<svg width="150" height="150" viewBox="0 0 150 150" fill="none" xmlns="http://www.w3.org/2000/svg">
<rect width="150" height="150" rx="75" fill="white"/>
<path d="M119.687 59.6589L122.867 56.4797C124.242 55.1047 125 53.2714 125 51.3255C125 49.3755 124.242 47.5464 122.862 46.1714L116.254 39.563L119.612 36.2047C121.242 34.5755 121.242 31.9422 119.612 30.313C117.983 28.6839 115.35 28.6839 113.721 30.313L110.362 33.6714L103.758 27.0672C101.004 24.313 96.2042 24.3089 93.4458 27.0672L90.2667 30.2464L89.175 29.1547C86.425 26.4005 81.6208 26.3964 78.8625 29.1547L76.4208 31.5964C73.5792 34.438 73.5792 39.063 76.4208 41.9089L89.2792 54.7672L54.8292 89.2172L41.9708 76.3422C39.1333 73.5005 34.5042 73.5089 31.6625 76.3422L29.2208 78.7839C27.8417 80.163 27.0833 81.9964 27.0833 83.9422C27.0833 85.8922 27.8417 87.7214 29.2208 89.0964L30.3167 90.1922L27.1375 93.3714C25.7583 94.7464 25 96.5797 25 98.5255C25 100.476 25.7583 102.305 27.1375 103.68L33.7458 110.288L30.3875 113.646C28.7583 115.276 28.7583 117.909 30.3875 119.538C31.2 120.351 32.2667 120.759 33.3333 120.759C34.4 120.759 35.4667 120.351 36.2792 119.538L39.6375 116.18L46.2417 122.784C47.6208 124.167 49.45 124.926 51.4 124.926C53.3458 124.926 55.1792 124.167 56.5542 122.788L59.7333 119.609L60.825 120.701C62.2042 122.08 64.0333 122.838 65.9833 122.838C67.9292 122.838 69.7625 122.08 71.1375 120.701L73.5792 118.259C76.4208 115.417 76.4208 110.792 73.5792 107.946L60.7208 95.088L95.1708 60.638L108.029 73.4964C109.45 74.9172 111.317 75.6255 113.183 75.6255C115.05 75.6255 116.917 74.913 118.337 73.4922L120.779 71.0505C122.158 69.6714 122.917 67.8422 122.917 65.8964C122.917 63.9464 122.158 62.1172 120.779 60.7422L119.687 59.6589Z" fill="#FFE3C6"/>
<path d="M31.2012 77.4235H20.0439V91.9255H12.8662V56.3786H32.5439V62.36H20.0439V71.4665H31.2012V77.4235ZM43.5547 91.9255H36.6211V65.5094H43.5547V91.9255ZM36.3037 58.6735C36.3037 57.5993 36.6455 56.7204 37.3291 56.0368C38.0127 55.3532 38.9242 55.0114 40.0635 55.0114C41.2028 55.0114 42.1143 55.3532 42.7979 56.0368C43.4814 56.7204 43.8232 57.5993 43.8232 58.6735C43.8232 59.7315 43.4814 60.6104 42.7979 61.3102C42.1305 62.0101 41.2191 62.36 40.0635 62.36C38.9079 62.36 37.9883 62.0101 37.3047 61.3102C36.6374 60.6104 36.3037 59.7315 36.3037 58.6735ZM56.9336 59.0153V65.5094H60.4736V70.7096H56.9336V83.82C56.9336 84.8617 57.0719 85.5778 57.3486 85.9684C57.6416 86.3591 58.195 86.5544 59.0088 86.5544C59.6761 86.5544 60.2214 86.4974 60.6445 86.3835L60.5957 91.7546C59.4238 92.194 58.1543 92.4137 56.7871 92.4137C52.3275 92.4137 50.0732 89.8584 50.0244 84.7477V70.7096H46.9727V65.5094H50.0244V59.0153H56.9336ZM81.5918 84.6501H71.8018L69.8975 91.9255H62.3047L73.4131 56.3786H79.9805L91.1621 91.9255H83.4961L81.5918 84.6501ZM73.3643 78.6686H80.0049L76.6846 65.9977L73.3643 78.6686ZM113.574 79.5475C113.574 83.6979 112.858 86.8799 111.426 89.0934C110.01 91.307 107.894 92.4137 105.078 92.4137C102.93 92.4137 101.204 91.543 99.9023 89.8014V102.082H92.9932V65.5094H99.3896L99.6338 67.9264C100.952 65.9896 102.751 65.0212 105.029 65.0212C107.845 65.0212 109.961 66.0466 111.377 68.0973C112.809 70.1481 113.542 73.2894 113.574 77.5212V79.5475ZM106.689 77.8141C106.689 75.2588 106.405 73.4522 105.835 72.3942C105.282 71.3363 104.338 70.8073 103.003 70.8073C101.587 70.8073 100.553 71.4014 99.9023 72.5895V84.9675C100.521 86.1068 101.571 86.6764 103.052 86.6764C104.419 86.6764 105.363 86.0986 105.884 84.943C106.421 83.7874 106.689 81.9889 106.689 79.5475V77.8141ZM138.33 79.5475C138.33 83.6979 137.614 86.8799 136.182 89.0934C134.766 91.307 132.65 92.4137 129.834 92.4137C127.686 92.4137 125.96 91.543 124.658 89.8014V102.082H117.749V65.5094H124.146L124.39 67.9264C125.708 65.9896 127.507 65.0212 129.785 65.0212C132.601 65.0212 134.717 66.0466 136.133 68.0973C137.565 70.1481 138.298 73.2894 138.33 77.5212V79.5475ZM131.445 77.8141C131.445 75.2588 131.16 73.4522 130.591 72.3942C130.037 71.3363 129.093 70.8073 127.759 70.8073C126.343 70.8073 125.309 71.4014 124.658 72.5895V84.9675C125.277 86.1068 126.326 86.6764 127.808 86.6764C129.175 86.6764 130.119 86.0986 130.64 84.943C131.177 83.7874 131.445 81.9889 131.445 79.5475V77.8141Z" fill="#F37E00"/>
</svg>
