<svg width="150" height="100" viewBox="0 0 150 100" fill="none" xmlns="http://www.w3.org/2000/svg">
<g clip-path="url(#clip0)">
<path d="M119.687 34.6589L122.867 31.4797C124.242 30.1047 125 28.2714 125 26.3255C125 24.3755 124.242 22.5464 122.862 21.1714L116.254 14.563L119.612 11.2047C121.242 9.57552 121.242 6.94219 119.612 5.31302C117.983 3.68385 115.35 3.68385 113.721 5.31302L110.362 8.67135L103.758 2.06719C101.004 -0.686979 96.2042 -0.691146 93.4458 2.06719L90.2667 5.24635L89.175 4.15469C86.425 1.40052 81.6208 1.39635 78.8625 4.15469L76.4208 6.59635C73.5792 9.43802 73.5792 14.063 76.4208 16.9089L89.2792 29.7672L54.8292 64.2172L41.9708 51.3422C39.1333 48.5005 34.5042 48.5089 31.6625 51.3422L29.2208 53.7839C27.8417 55.163 27.0833 56.9964 27.0833 58.9422C27.0833 60.8922 27.8417 62.7214 29.2208 64.0964L30.3167 65.1922L27.1375 68.3714C25.7583 69.7464 25 71.5797 25 73.5255C25 75.4755 25.7583 77.3047 27.1375 78.6797L33.7458 85.288L30.3875 88.6464C28.7583 90.2755 28.7583 92.9089 30.3875 94.538C31.2 95.3505 32.2667 95.7589 33.3333 95.7589C34.4 95.7589 35.4667 95.3505 36.2792 94.538L39.6375 91.1797L46.2417 97.7839C47.6208 99.1672 49.45 99.9255 51.4 99.9255C53.3458 99.9255 55.1792 99.1672 56.5542 97.788L59.7333 94.6089L60.825 95.7005C62.2042 97.0797 64.0333 97.838 65.9833 97.838C67.9292 97.838 69.7625 97.0797 71.1375 95.7005L73.5792 93.2589C76.4208 90.4172 76.4208 85.7922 73.5792 82.9464L60.7208 70.088L95.1708 35.638L108.029 48.4964C109.45 49.9172 111.317 50.6255 113.183 50.6255C115.05 50.6255 116.917 49.913 118.337 48.4922L120.779 46.0505C122.158 44.6714 122.917 42.8422 122.917 40.8964C122.917 38.9464 122.158 37.1172 120.779 35.7422L119.687 34.6589Z" fill="#FFD09E"/>
<path d="M31.2012 52.4235H20.0439V66.9255H12.8662V31.3786H32.5439V37.36H20.0439V46.4665H31.2012V52.4235ZM43.5547 66.9255H36.6211V40.5094H43.5547V66.9255ZM36.3037 33.6735C36.3037 32.5993 36.6455 31.7204 37.3291 31.0368C38.0127 30.3532 38.9242 30.0114 40.0635 30.0114C41.2028 30.0114 42.1143 30.3532 42.7979 31.0368C43.4814 31.7204 43.8232 32.5993 43.8232 33.6735C43.8232 34.7315 43.4814 35.6104 42.7979 36.3102C42.1305 37.0101 41.2191 37.36 40.0635 37.36C38.9079 37.36 37.9883 37.0101 37.3047 36.3102C36.6374 35.6104 36.3037 34.7315 36.3037 33.6735ZM56.9336 34.0153V40.5094H60.4736V45.7096H56.9336V58.82C56.9336 59.8617 57.0719 60.5778 57.3486 60.9684C57.6416 61.3591 58.195 61.5544 59.0088 61.5544C59.6761 61.5544 60.2214 61.4974 60.6445 61.3835L60.5957 66.7546C59.4238 67.194 58.1543 67.4137 56.7871 67.4137C52.3275 67.4137 50.0732 64.8584 50.0244 59.7477V45.7096H46.9727V40.5094H50.0244V34.0153H56.9336ZM81.5918 59.6501H71.8018L69.8975 66.9255H62.3047L73.4131 31.3786H79.9805L91.1621 66.9255H83.4961L81.5918 59.6501ZM73.3643 53.6686H80.0049L76.6846 40.9977L73.3643 53.6686ZM113.574 54.5475C113.574 58.6979 112.858 61.8799 111.426 64.0934C110.01 66.307 107.894 67.4137 105.078 67.4137C102.93 67.4137 101.204 66.543 99.9023 64.8014V77.0817H92.9932V40.5094H99.3896L99.6338 42.9264C100.952 40.9896 102.751 40.0212 105.029 40.0212C107.845 40.0212 109.961 41.0466 111.377 43.0973C112.809 45.1481 113.542 48.2894 113.574 52.5212V54.5475ZM106.689 52.8141C106.689 50.2588 106.405 48.4522 105.835 47.3942C105.282 46.3363 104.338 45.8073 103.003 45.8073C101.587 45.8073 100.553 46.4014 99.9023 47.5895V59.9675C100.521 61.1068 101.571 61.6764 103.052 61.6764C104.419 61.6764 105.363 61.0986 105.884 59.943C106.421 58.7874 106.689 56.9889 106.689 54.5475V52.8141ZM138.33 54.5475C138.33 58.6979 137.614 61.8799 136.182 64.0934C134.766 66.307 132.65 67.4137 129.834 67.4137C127.686 67.4137 125.96 66.543 124.658 64.8014V77.0817H117.749V40.5094H124.146L124.39 42.9264C125.708 40.9896 127.507 40.0212 129.785 40.0212C132.601 40.0212 134.717 41.0466 136.133 43.0973C137.565 45.1481 138.298 48.2894 138.33 52.5212V54.5475ZM131.445 52.8141C131.445 50.2588 131.16 48.4522 130.591 47.3942C130.037 46.3363 129.093 45.8073 127.759 45.8073C126.343 45.8073 125.309 46.4014 124.658 47.5895V59.9675C125.277 61.1068 126.326 61.6764 127.808 61.6764C129.175 61.6764 130.119 61.0986 130.64 59.943C131.177 58.7874 131.445 56.9889 131.445 54.5475V52.8141Z" fill="#F37E00"/>
</g>
<defs>
<clipPath id="clip0">
<rect width="150" height="100" fill="white"/>
</clipPath>
</defs>
</svg>
