<?xml version="1.0"?>
<svg xmlns="http://www.w3.org/2000/svg" xmlns:xlink="http://www.w3.org/1999/xlink" xmlns:svgjs="http://svgjs.com/svgjs" version="1.1" width="512" height="512" x="0" y="0" viewBox="0 0 512 512" style="enable-background:new 0 0 512 512" xml:space="preserve" class=""><g><g xmlns="http://www.w3.org/2000/svg"><path d="m276.956 0v57.674h136.589l-101.389 101.389c-32.544-24.144-72.837-38.431-116.471-38.431-108.074 0-195.685 87.61-195.685 195.684 0 108.073 87.611 195.684 195.684 195.684s195.684-87.611 195.684-195.684c0-43.634-14.287-83.928-38.431-116.472l101.389-101.388v136.589h57.674v-235.045zm-81.272 447.552c-72.48 0-131.237-58.757-131.237-131.237s58.757-131.237 131.237-131.237 131.237 58.757 131.237 131.237c0 72.481-58.757 131.237-131.237 131.237z" fill="#010c5c" data-original="#000000" style="" class=""/></g></g></svg>
